<?xml version="1.0" encoding="UTF-8" standalone="no" ?>
<!DOCTYPE svg PUBLIC "-//W3C//DTD SVG 1.1//EN" "http://www.w3.org/Graphics/SVG/1.1/DTD/svg11.dtd">
<svg xmlns="http://www.w3.org/2000/svg" xmlns:xlink="http://www.w3.org/1999/xlink" version="1.1" width="1170" height="2532" viewBox="0 0 1170 2532" xml:space="preserve">
<desc>Created with Fabric.js 4.6.0</desc>
<defs>
</defs>
<g transform="matrix(1 0 0 1 585 1028.09)" id="_mIKm0e18meDzFCpRbpgQ"  >
<path style="stroke: rgb(4,59,5); stroke-width: 0; stroke-dasharray: none; stroke-linecap: butt; stroke-dashoffset: 0; stroke-linejoin: miter; stroke-miterlimit: 4; fill: rgb(13,203,130); fill-rule: nonzero; opacity: 1;" vector-effect="non-scaling-stroke"  transform=" translate(-212.42, -212.42)" d="M 0 90.12052197807073 C 4.80077068672739e-15 40.348332042791434 40.348332042791405 2.5306500410031042e-14 90.1205219780707 0 L 334.71169278702996 0 L 334.71169278702996 0 C 384.48388272230926 -3.444142101960807e-14 424.8322147651007 40.348332042791384 424.8322147651007 90.1205219780707 L 424.8322147651007 334.71169278702996 L 424.8322147651007 334.71169278702996 C 424.83221476510073 384.48388272230926 384.48388272230926 424.83221476510073 334.71169278702996 424.8322147651007 L 90.12052197807071 424.8322147651007 L 90.12052197807071 424.8322147651007 C 40.3483320427914 424.8322147651007 -1.4254854159598337e-14 384.48388272230926 0 334.71169278702996 Z" stroke-linecap="round" />
</g>
<g transform="matrix(1 0 0 1 640.23 322.87)" id="ulOGItpFd942In8dScuU6"  >
<path style="stroke: rgb(255,255,255); stroke-width: 0; stroke-dasharray: none; stroke-linecap: butt; stroke-dashoffset: 0; stroke-linejoin: miter; stroke-miterlimit: 4; fill: rgb(13,203,130); fill-rule: nonzero; opacity: 1;" vector-effect="non-scaling-stroke"  transform=" translate(-118.95, -118.95)" d="M 118.95302 0 C 184.61509 0 237.90604 53.29095 237.90604 118.95302 C 237.90604 184.61509 184.61508999999998 237.90604 118.95302 237.90604 C 53.290949999999995 237.90604 0 184.61508999999998 0 118.95302 C 0 53.290949999999995 53.29095 0 118.95302 0 z" stroke-linecap="round" />
</g>
<g transform="matrix(0.81 0 0 0.81 585 1028.09)" id="QSOHhZNA_De8m0w7c81Cq"  >
<path style="stroke: rgb(255,255,255); stroke-width: 22; stroke-dasharray: none; stroke-linecap: butt; stroke-dashoffset: 0; stroke-linejoin: miter; stroke-miterlimit: 4; fill: rgb(13,203,130); fill-rule: nonzero; opacity: 1;" vector-effect="non-scaling-stroke"  transform=" translate(0, 0)" d="M 0 -118.95302 C 65.66207 -118.95302 118.95302 -65.66207 118.95302 0 C 118.95302 65.66207 65.66207 118.95302 0 118.95302 C -65.66207 118.95302 -118.95302 65.66207 -118.95302 0 C -118.95302 -65.66207 -65.66207 -118.95302 0 -118.95302 z" stroke-linecap="round" />
</g>
<g transform="matrix(1 0 0 1 897.25 414.21)" id="0MBdaE6c1ox9GBeqizPkr"  >
<path style="stroke: rgb(0,0,0); stroke-width: 0; stroke-dasharray: none; stroke-linecap: butt; stroke-dashoffset: 0; stroke-linejoin: miter; stroke-miterlimit: 4; fill: rgb(0,0,0); fill-rule: nonzero; opacity: 1;" vector-effect="non-scaling-stroke"  transform=" translate(-91.34, -91.34)" d="M 91.33892 182.67784 C 141.758 182.67784 182.67784 141.758 182.67784 91.33892 C 182.67784 40.91984 141.758 0 91.33892 0 C 40.91984 0 0 40.91984 0 91.33892 C 0 141.758 40.91984 182.67784 91.33892 182.67784 z" stroke-linecap="round" />
</g>
<g transform="matrix(1.75 0 0 1.75 613.47 1380.7)" id="XnSNw__T12j8aGAzyIBly"  >
<g style="" vector-effect="non-scaling-stroke"   >
		<g transform="matrix(1 0 0 1 0 0)" id="u7ZtTr6mGozvQRXjuyS1O"  >
<path style="stroke: none; stroke-width: 1; stroke-dasharray: none; stroke-linecap: butt; stroke-dashoffset: 0; stroke-linejoin: miter; stroke-miterlimit: 4; fill: rgb(179,181,179); fill-rule: nonzero; opacity: 1;" vector-effect="non-scaling-stroke"  transform=" translate(-40, -40)" d="M 69.7 4.8 C 69.7 3.0999999999999996 68.3 1.6999999999999997 66.60000000000001 1.6999999999999997 L 13.4 1.6999999999999997 C 11.700000000000001 1.6999999999999997 10.3 3.0999999999999996 10.3 4.8 L 10.3 18 C 10.3 18 0 27.5 0 27.5 L 0 69.1 C 0 74.19999999999999 4.1 78.3 9.2 78.3 L 70.8 78.3 C 75.89999999999999 78.3 80 74.2 80 69.1 L 80 27.5 C 80 27.5 69.7 18 69.7 18 L 69.7 4.8 z" stroke-linecap="round" />
</g>
		<g transform="matrix(1 0 0 1 0 8.95)" id="PHHeyICRqz53ADTZyVLkq"  >
<path style="stroke: none; stroke-width: 1; stroke-dasharray: none; stroke-linecap: butt; stroke-dashoffset: 0; stroke-linejoin: miter; stroke-miterlimit: 4; fill: rgb(255,255,255); fill-rule: nonzero; opacity: 1;" vector-effect="non-scaling-stroke"  transform=" translate(-40, -48.95)" d="M 73.8 33.1 L 73.8 69.1 L 73.8 69.1 C 73.8 70.8 72.5 72.1 70.8 72.1 L 9.2 72.1 C 7.499999999999999 72.1 6.199999999999999 70.8 6.199999999999999 69.1 L 6.199999999999999 33.099999999999994 L 38.400000000000006 53.3 C 39.400000000000006 53.9 40.7 53.9 41.7 53.3 L 73.8 33.1 z M 10.3 25.8 L 8.5 27.2 L 10.3 28.3 L 10.3 25.8 z M 69.7 25.8 L 71.5 27.2 L 69.7 28.3 L 69.7 25.8 z" stroke-linecap="round" />
</g>
		<g transform="matrix(1 0 0 1 0 -12.55)" id="TuEFYM9DveGIN0ulWUwPn"  >
<path style="stroke: none; stroke-width: 1; stroke-dasharray: none; stroke-linecap: butt; stroke-dashoffset: 0; stroke-linejoin: miter; stroke-miterlimit: 4; fill: rgb(255,255,255); fill-rule: nonzero; opacity: 1;" vector-effect="non-scaling-stroke"  transform=" translate(-40, -27.45)" d="M 63.6 32.2 L 63.6 7.9 L 16.4 7.9 L 16.4 32.2 L 40 47 L 63.6 32.2 z" stroke-linecap="round" />
</g>
		<g transform="matrix(1 0 0 1 0.05 -16.25)" id="h_TOI6wfh_1z5yzFq6jxs"  >
<path style="stroke: none; stroke-width: 1; stroke-dasharray: none; stroke-linecap: butt; stroke-dashoffset: 0; stroke-linejoin: miter; stroke-miterlimit: 4; fill: rgb(179,181,179); fill-rule: nonzero; opacity: 1;" vector-effect="non-scaling-stroke"  transform=" translate(-40.05, -23.75)" d="M 54.8 30.5 L 25.2 30.5 C 24.099999999999998 30.5 23.099999999999998 29.6 23.099999999999998 28.4 C 23.099999999999998 27.299999999999997 23.999999999999996 26.299999999999997 25.2 26.299999999999997 L 54.9 26.299999999999997 C 56 26.299999999999997 57 27.199999999999996 57 28.4 C 56.9 29.6 56 30.5 54.8 30.5 z M 25.2 21.2 L 54.9 21.2 C 56 21.2 57 20.3 57 19.099999999999998 C 57 17.899999999999995 56.1 16.999999999999996 54.9 16.999999999999996 L 25.2 16.999999999999996 C 24.099999999999998 16.999999999999996 23.099999999999998 17.899999999999995 23.099999999999998 19.099999999999998 C 23.1 20.3 24 21.2 25.2 21.2 z" stroke-linecap="round" />
</g>
</g>
</g>
<g transform="matrix(1.57 0 0 1.57 580.68 1030.08)" id="_a4jbRPD4xsnusOUhrUoP"  >
<g style="" vector-effect="non-scaling-stroke"   >
		<g transform="matrix(1 0 0 1 0 0)" id="d04QQmOYQG2nnV-Yb_Bub"  >
<path style="stroke: none; stroke-width: 1; stroke-dasharray: none; stroke-linecap: butt; stroke-dashoffset: 0; stroke-linejoin: miter; stroke-miterlimit: 4; fill: rgb(179,181,179); fill-rule: nonzero; opacity: 1;" vector-effect="non-scaling-stroke"  transform=" translate(-40, -39.95)" d="M 69.1 5.4 L 25.3 5.4 C 19.3 5.4 14.4 10.3 14.4 16.3 L 14.4 16.7 L 10.9 16.7 C 4.9 16.7 0 21.6 0 27.6 L 0 50.2 C 0 55.400000000000006 3.6 59.7 8.4 60.800000000000004 L 8.4 71.2 C 8.4 73 8.5 74 9.4 74.4 C 10.6 74.9 12.3 73.4 12.600000000000001 73.2 L 27 61.2 L 47.3 61.2 C 52.099999999999994 61.2 56.199999999999996 58.1 57.599999999999994 53.800000000000004 L 67.39999999999999 62 C 67.69999999999999 62.2 69.3 63.7 70.6 63.2 C 71.5 62.800000000000004 71.6 61.800000000000004 71.6 60 L 71.6 49.6 C 76.4 48.5 80 44.1 80 39 L 80 16.4 C 80 10.3 75.1 5.4 69.1 5.4 z" stroke-linecap="round" />
</g>
		<g transform="matrix(1 0 0 1 -10.85 3.9)" id="Gbl-QKmKevEUMLX62_y63"  >
<path style="stroke: none; stroke-width: 1; stroke-dasharray: none; stroke-linecap: butt; stroke-dashoffset: 0; stroke-linejoin: miter; stroke-miterlimit: 4; fill: rgb(255,255,255); fill-rule: nonzero; opacity: 1;" vector-effect="non-scaling-stroke"  transform=" translate(-29.15, -43.85)" d="M 53.2 49.9 L 53.2 49.9 L 53.2 50.3 C 53.2 53.5 50.6 56.199999999999996 47.300000000000004 56.199999999999996 L 26.1 56.199999999999996 C 25.5 56.199999999999996 24.900000000000002 56.4 24.5 56.8 L 13.5 66 L 13.5 58.7 C 13.5 57.300000000000004 12.4 56.2 11 56.2 C 7.8 56.2 5.1 53.6 5.1 50.300000000000004 L 5.1 27.6 C 5.1 24.400000000000002 7.699999999999999 21.700000000000003 11 21.700000000000003 L 14.5 21.700000000000003 L 14.5 39 C 14.5 45 19.4 49.9 25.4 49.9 L 53.2 49.9 z" stroke-linecap="round" />
</g>
		<g transform="matrix(1 0 0 1 7.15 -7.35)" id="wAlyF8MdL0-xFWmBDSMEa"  >
<path style="stroke: none; stroke-width: 1; stroke-dasharray: none; stroke-linecap: butt; stroke-dashoffset: 0; stroke-linejoin: miter; stroke-miterlimit: 4; fill: rgb(255,255,255); fill-rule: nonzero; opacity: 1;" vector-effect="non-scaling-stroke"  transform=" translate(-47.15, -32.6)" d="M 69.1 10.5 L 25.3 10.5 C 22.1 10.5 19.4 13.1 19.4 16.4 L 19.4 39 C 19.4 42.2 22 44.9 25.299999999999997 44.9 L 53.9 44.9 C 54.5 44.9 55.1 45.1 55.5 45.5 L 66.5 54.7 L 66.5 47.400000000000006 C 66.5 46.00000000000001 67.6 44.900000000000006 69 44.900000000000006 C 72.2 44.900000000000006 74.9 42.300000000000004 74.9 39.00000000000001 L 74.9 16.4 L 74.9 16.4 C 75 13.1 72.3 10.5 69.1 10.5 z" stroke-linecap="round" />
</g>
		<g transform="matrix(1 0 0 1 7.2 -11.75)" id="6tgJRFAh9yIiLZF6l5vJC"  >
<path style="stroke: none; stroke-width: 1; stroke-dasharray: none; stroke-linecap: butt; stroke-dashoffset: 0; stroke-linejoin: miter; stroke-miterlimit: 4; fill: rgb(179,181,179); fill-rule: nonzero; opacity: 1;" vector-effect="non-scaling-stroke"  transform=" translate(-47.2, -28.2)" d="M 67.4 23.3 C 67.4 24.2 66.60000000000001 25 65.7 25 L 28.700000000000003 25 C 27.800000000000004 25 27.000000000000004 24.2 27.000000000000004 23.3 C 27.000000000000004 22.400000000000002 27.800000000000004 21.6 28.700000000000003 21.6 L 65.7 21.6 C 66.6 21.6 67.4 22.4 67.4 23.3 z M 65.7 31.4 L 28.700000000000003 31.4 C 27.800000000000004 31.4 27.000000000000004 32.199999999999996 27.000000000000004 33.1 C 27.000000000000004 34.00000000000001 27.800000000000004 34.800000000000004 28.700000000000003 34.800000000000004 L 65.7 34.800000000000004 C 66.60000000000001 34.800000000000004 67.4 34.00000000000001 67.4 33.1 C 67.4 32.199999999999996 66.6 31.4 65.7 31.4 z" stroke-linecap="round" />
</g>
</g>
</g>
</svg>